<svg id="Capa_1" enable-background="new 0 0 512 512" height="512" viewBox="0 0 512 512" width="512" xmlns="http://www.w3.org/2000/svg"><g><path d="m120 331v-32.58c17.459-6.192 30-22.865 30-42.42 0-24.813-20.187-45-45-45-8.271 0-15-6.729-15-15s6.729-15 15-15 15 6.729 15 15h30c0-19.555-12.541-36.228-30-42.42v-33.58h-30v33.58c-17.459 6.192-30 22.865-30 42.42 0 24.813 20.187 45 45 45 8.271 0 15 6.729 15 15s-6.729 15-15 15-15-6.729-15-15h-30c0 19.555 12.541 36.228 30 42.42v32.58z"/><path d="m390 98.787-98.787-98.787h-291.213v512h390v-60h122v-90h-122zm-90-47.574 38.787 38.787h-38.787zm60 430.787h-330v-452h240v90h90v242h-165c-28.69 0-55.176 20.508-65.897 30h-24.103v30h24.103c10.722 9.492 37.208 30 65.897 30h165zm-180-63.051c-7.782-2.904-15.355-7.48-21.583-11.948 6.23-4.471 13.803-9.047 21.583-11.95zm30-26.949h212v30h-212zm272 30h-30v-30h30z"/><path d="m180 151h150v30h-150z"/><path d="m180 211h150v30h-150z"/><path d="m180 271h150v30h-150z"/></g></svg>