<svg width="20" height="25" viewBox="0 0 20 25" fill="none" xmlns="http://www.w3.org/2000/svg">
<path d="M11.621 6.875V0.5H1.50211C0.829204 0.5 0.287842 1.00156 0.287842 1.625V23.375C0.287842 23.9984 0.829204 24.5 1.50211 24.5H18.5019C19.1748 24.5 19.7162 23.9984 19.7162 23.375V8H12.8353C12.1675 8 11.621 7.49375 11.621 6.875ZM14.8591 17.9375C14.8591 18.2469 14.5859 18.5 14.252 18.5H5.75206C5.41814 18.5 5.14493 18.2469 5.14493 17.9375V17.5625C5.14493 17.2531 5.41814 17 5.75206 17H14.252C14.5859 17 14.8591 17.2531 14.8591 17.5625V17.9375ZM14.8591 14.9375C14.8591 15.2469 14.5859 15.5 14.252 15.5H5.75206C5.41814 15.5 5.14493 15.2469 5.14493 14.9375V14.5625C5.14493 14.2531 5.41814 14 5.75206 14H14.252C14.5859 14 14.8591 14.2531 14.8591 14.5625V14.9375ZM14.8591 11.5625V11.9375C14.8591 12.2469 14.5859 12.5 14.252 12.5H5.75206C5.41814 12.5 5.14493 12.2469 5.14493 11.9375V11.5625C5.14493 11.2531 5.41814 11 5.75206 11H14.252C14.5859 11 14.8591 11.2531 14.8591 11.5625ZM19.7162 6.21406V6.5H13.2401V0.5H13.5487C13.8725 0.5 14.1811 0.617188 14.4088 0.828125L19.362 5.42188C19.5897 5.63281 19.7162 5.91875 19.7162 6.21406Z" fill="#BB582A"/>
</svg>
