<svg width="25" height="23" viewBox="0 0 25 23" fill="none" xmlns="http://www.w3.org/2000/svg">
<path d="M23.7318 19.4639C24.5009 20.8791 23.5355 22.6482 21.9995 22.6482H2.00422C0.465173 22.6482 -0.495743 20.8764 0.27184 19.4639L10.2696 1.06097C11.039 -0.354939 12.9663 -0.352374 13.7343 1.06097L23.7318 19.4639ZM12.002 15.6591C10.9434 15.6591 10.0853 16.5701 10.0853 17.6939C10.0853 18.8177 10.9434 19.7287 12.002 19.7287C13.0605 19.7287 13.9186 18.8177 13.9186 17.6939C13.9186 16.5701 13.0605 15.6591 12.002 15.6591ZM10.1823 8.34506L10.4913 14.361C10.5058 14.6425 10.725 14.8629 10.9906 14.8629H13.0133C13.2789 14.8629 13.4981 14.6425 13.5126 14.361L13.8217 8.34506C13.8373 8.04099 13.6093 7.78531 13.3224 7.78531H10.6815C10.3946 7.78531 10.1666 8.04099 10.1823 8.34506Z" fill="#EB8D2B"/>
</svg>
