<svg width="24" height="24" viewBox="0 0 24 24" fill="none" xmlns="http://www.w3.org/2000/svg">
<path d="M12.002 0.657715C5.58209 0.657715 0.376953 5.73817 0.376953 12.0002C0.376953 18.2658 5.58209 23.3426 12.002 23.3426C18.4218 23.3426 23.627 18.2658 23.627 12.0002C23.627 5.73817 18.4218 0.657715 12.002 0.657715ZM12.002 5.68863C13.0893 5.68863 13.9707 6.54865 13.9707 7.60953C13.9707 8.67041 13.0893 9.53043 12.002 9.53043C10.9146 9.53043 10.0332 8.67041 10.0332 7.60953C10.0332 6.54865 10.9146 5.68863 12.002 5.68863ZM14.627 17.3055C14.627 17.6086 14.3751 17.8543 14.0645 17.8543H9.93945C9.62881 17.8543 9.37695 17.6086 9.37695 17.3055V16.2078C9.37695 15.9047 9.62881 15.659 9.93945 15.659H10.502V12.7319H9.93945C9.62881 12.7319 9.37695 12.4862 9.37695 12.1831V11.0854C9.37695 10.7823 9.62881 10.5366 9.93945 10.5366H12.9395C13.2501 10.5366 13.502 10.7823 13.502 11.0854V15.659H14.0645C14.3751 15.659 14.627 15.9047 14.627 16.2078V17.3055Z" fill="#FF5050"/>
</svg>
