<svg width="182" height="191" viewBox="0 0 182 191" fill="none" xmlns="http://www.w3.org/2000/svg">
<path opacity="0.25" fill-rule="evenodd" clip-rule="evenodd" d="M177.997 4.25206C170.837 11.6994 163.436 22.2647 158.391 32.3761C152.771 43.5468 148.995 55.8075 147.182 68.5221C146.548 73.1844 146.276 86.0503 146.729 91.4391C148.723 115.052 158.874 139.604 176.094 162.52C180.746 168.696 181.35 169.453 181.562 169.453C181.955 169.514 187.725 162.036 190.565 157.828C203.374 138.786 212.437 117.232 215.761 97.7357C217.12 89.8345 217.301 87.4431 217.271 77.7557C217.271 69.9146 217.15 67.8561 216.606 64.2235C213.767 45.3633 206.848 29.8028 194.341 14.1816C191.108 10.1553 182.257 0.861542 181.653 0.861542C181.441 0.861542 179.81 2.40535 177.997 4.25206ZM187.876 18.8136C200.021 33.617 206.758 48.8749 209.356 67.4627C209.96 71.9432 209.869 85.3843 209.205 90.4702C206.365 111.51 198.057 132.52 184.734 152.319L181.743 156.799L180.233 154.74C169.599 140.209 161.109 122.802 157.242 107.575C154.795 97.9781 153.949 91.227 153.949 81.6911C153.919 74.0925 154.403 69.3699 155.823 62.3162C159.357 44.8183 168.028 27.3809 180.112 13.4853L181.653 11.6994L183.405 13.6369C184.402 14.6963 186.396 17.0275 187.876 18.8136ZM303.704 55.2323C284.127 57.8963 266.937 67.3414 255.548 81.6609C246.031 93.6792 240.382 108.241 237.844 127.464L237.663 128.887L211.924 153.802C197.755 167.485 185.217 179.625 184.039 180.775L181.864 182.834L155.641 158.222L129.388 133.61L129.177 131.49C127.878 118.988 125.612 110.753 120.96 101.52C110.537 80.8735 91.6553 67.4627 65.221 61.8923C61.656 61.1355 53.4389 59.8943 52.0188 59.8943H51.2334L51.445 62.6794C51.9584 69.5818 54.0432 79.1482 56.7922 87.1402C61.2332 100.037 67.547 110.784 75.5832 119.139C87.4559 131.49 101.715 137.787 120.869 139.059L123.799 139.271L152.832 166.486C168.783 181.472 181.955 193.702 182.076 193.641C182.197 193.581 196.033 180.261 212.83 164.004L243.343 134.488L245.578 134.094C261.107 131.309 278.236 123.741 289.505 114.598C302.253 104.305 310.471 90.1374 313.069 74.1227C313.764 69.612 314.187 62.4978 313.975 58.4413L313.764 54.7478L310.229 54.7781C308.296 54.8084 305.365 54.9899 303.704 55.2323ZM306.12 65.2526C304.912 81.8424 299.716 93.8002 289.233 104.244C281.136 112.297 270.23 118.715 257.481 122.923C254.551 123.862 247.149 125.89 246.545 125.89C245.971 125.89 246.062 124.861 247.089 119.805C251.953 95.4956 264.611 78.028 283.916 68.8855C289.565 66.2215 296.785 64.0719 303.552 63.073C304.973 62.8612 306.181 62.6793 306.211 62.6491C306.272 62.6188 306.241 63.7995 306.12 65.2526ZM64.9489 69.9146C80.4168 73.3054 93.2563 79.8747 102.682 89.2592C113.286 99.8248 119.419 113.115 121.231 129.583L121.413 131.279L120.265 131.158C110.084 130.128 104.253 128.675 97.3954 125.466C80.1148 117.353 67.0337 99.0677 61.3842 75.0913C60.478 71.1861 60.1154 68.9763 60.4173 68.9763C60.5686 68.9763 62.6229 69.4002 64.9489 69.9146ZM71.3838 153.015C52.0188 154.256 32.9258 161.824 14.9504 175.356C8.96882 179.867 0.237793 187.435 0.237793 188.101C0.237793 188.677 7.21651 195.851 10.6604 198.818C27.5786 213.41 47.5781 222.462 67.9097 224.732C72.6225 225.247 82.7129 225.337 87.2747 224.884C106.791 222.946 126.488 215.014 145.37 201.513C147.213 200.18 148.783 199.06 148.814 199C148.995 198.848 144.342 192.794 144.101 192.794C143.95 192.794 143.013 193.43 141.956 194.186C140.899 194.943 138.119 196.85 135.763 198.394C120.718 208.324 105.794 214.348 90.4166 216.77C84.6464 217.678 71.1422 217.769 65.795 216.921C60.206 216.044 55.7046 214.954 50.5385 213.228C37.3366 208.839 25.7055 201.906 14.5274 191.825L11.0835 188.707L12.0806 187.859C36.2489 167.092 61.8677 158.07 86.7913 161.491C105.522 164.065 124.464 173.147 142.681 188.223C153.436 197.123 166.759 211.109 177.665 224.914C179.84 227.699 181.743 229.999 181.864 229.999C181.955 230.03 182.891 228.849 183.918 227.366C192.982 214.681 207.181 199.575 219.96 189.07C239.264 173.177 257.814 164.276 277.42 161.431C282.345 160.704 292.314 160.704 297.51 161.431C315.848 163.944 334.518 172.965 351.285 187.436L352.614 188.556L350.681 190.554C346.421 194.883 339.382 200.241 332.706 204.267C320.773 211.442 308.688 215.65 295.516 217.194C289.807 217.86 278.81 217.648 273.191 216.74C268.448 215.953 261.922 214.409 257.632 212.986C246.364 209.262 233.736 202.693 223.222 195.095C221.652 193.974 220.201 192.975 219.99 192.885C219.537 192.703 214.884 198.818 215.217 199.121C216.123 199.878 220.292 202.784 223.645 204.994C240.926 216.346 257.572 222.673 275.457 224.732C280.925 225.368 293.825 225.216 298.568 224.46C317.782 221.372 334.277 214.046 349.956 201.543C353.763 198.515 362.131 190.432 363.219 188.767L363.762 187.92L361.557 185.891C342.101 168.091 322.585 157.647 302.314 154.195C289.414 152.016 276.937 152.651 263.826 156.163C240.896 162.278 217.241 178.051 196.365 201.119C192.075 205.902 186.426 212.774 183.465 216.8L181.955 218.889L181.35 218.042C175.369 209.807 165.973 198.97 158.783 192.037C135.159 169.211 110.658 156.224 85.8851 153.438C82.8035 153.106 74.1332 152.833 71.3838 153.015Z" fill="#B7DEE6"/>
</svg>
