<svg id="Capa_1" enable-background="new 0 0 512 512" height="512" viewBox="0 0 512 512" width="512" xmlns="http://www.w3.org/2000/svg"><g><path d="m120.5 104.272h30v30h-30z"/><path d="m180.75 104.272h30v30h-30z"/><path d="m512 28.96h-451.75v180.625h30.125v60.25h60.25v62.58h30.125v30.255h-90.5v-30.13h-90.25v150.5h90.25v-30.12h180.75v-120.505h30.125v-62.58h180.75v-110.67c18.828-23.275 30.125-52.881 30.125-85.08zm-391.625 180.625h256.125c5.113 0 10.158-.295 15.125-.849v31.099h-271.25zm-60.125 243.455h-30.25v-90.5h30.25zm180.75-30.12h-150.75v-30.25h120.5v-60.255h30.25zm30.125-120.505h-.125-90.25-.125v-32.58h90.5zm150.5-62.58v-37.986c10.77-3.815 20.92-8.95 30.25-15.219v53.204h-30.25zm60.375-165.75c0 58.173-47.327 105.5-105.5 105.5h-286.25v-120.625h391.75z"/></g></svg>