<svg id="Capa_1" enable-background="new 0 0 512 512" height="512" viewBox="0 0 512 512" width="512" xmlns="http://www.w3.org/2000/svg"><g><path d="m507.607 174.099c-5.857-5.858-15.355-5.858-21.213 0l-24.749 24.749-21.214-21.214 24.749-24.749c5.858-5.858 5.858-15.355 0-21.213-5.857-5.858-15.355-5.858-21.213 0l-24.749 24.749-21.213-21.213 24.749-24.749c5.858-5.857 5.858-15.355 0-21.213-5.856-5.857-15.354-5.858-21.213 0l-24.749 24.749-21.213-21.214 24.749-24.749c5.858-5.858 5.858-15.355 0-21.213-5.857-5.858-15.355-5.858-21.213 0l-24.749 24.749-21.213-21.213 24.748-24.749c5.858-5.858 5.858-15.355 0-21.213-5.857-5.857-15.355-5.858-21.213 0l-242.968 252.677c-23.036 24.392-35.46 56.3-34.98 89.848.256 17.959 4.199 35.342 11.445 51.26l-16.338 16.338c-8.5 8.499-13.181 19.8-13.181 31.82 0 6.83 1.515 13.425 4.379 19.408l-20.651 20.65c-5.858 5.857-5.858 15.355 0 21.213 2.929 2.929 6.767 4.393 10.606 4.393s7.678-1.465 10.606-4.393l20.67-20.67c6.113 2.912 12.749 4.377 19.388 4.377 11.524 0 23.048-4.386 31.82-13.159l16.338-16.339c15.918 7.245 33.3 11.188 51.259 11.445.625.009 1.247.013 1.87.013 32.86 0 64.04-12.386 87.978-34.994l252.676-242.968c5.86-5.858 5.86-15.355.002-21.213zm-431.334 282.843c-5.849 5.849-15.363 5.85-21.214 0-5.849-5.849-5.849-15.365 0-21.213l11.223-11.223c3.091 3.904 6.42 7.653 9.99 11.223s7.32 6.9 11.224 9.99zm158.058-40.472c-38.898 36.74-99.01 35.882-136.847-1.954-37.835-37.836-38.694-97.946-1.953-136.848l115.787-122.598c1.339 22.386 10.521 44.387 27.589 61.455l56.568 56.568c16.574 16.574 38.194 26.263 61.394 27.646zm128.319-145.551c-17.361 0-33.685-6.761-45.962-19.038l-56.568-56.568c-12.276-12.277-19.038-28.6-19.038-45.962 0-12.246 3.364-23.976 9.654-34.133l146.047 146.047c-10.158 6.29-21.887 9.654-34.133 9.654zm56.568-29.645-148.492-148.492 21.214-21.213 148.492 148.492z"/><path d="m203.551 263.45c-12.021 0-23.321 4.681-31.819 13.181l-42.427 42.426c-17.546 17.545-17.546 46.094 0 63.639 8.772 8.773 20.296 13.159 31.819 13.159 11.524 0 23.048-4.386 31.82-13.159l42.426-42.426c8.5-8.499 13.181-19.8 13.181-31.82s-4.681-23.32-13.181-31.819c-8.499-8.5-19.799-13.181-31.819-13.181zm-31.819 98.033c-5.85 5.85-15.364 5.849-21.214 0-5.849-5.849-5.849-15.365 0-21.213l10.607-10.607 21.213 21.214zm42.425-42.427-10.607 10.607-21.213-21.213 10.608-10.607c2.832-2.833 6.599-4.393 10.605-4.393s7.773 1.561 10.606 4.394 4.394 6.6 4.394 10.606c.001 4.006-1.56 7.773-4.393 10.606z"/></g></svg>