<svg id="Layer_1" enable-background="new 0 0 510 510" height="512" viewBox="0 0 510 510" width="512" xmlns="http://www.w3.org/2000/svg"><g><path d="m255 390c49.626 0 90-47.103 90-105s-40.374-105-90-105-90 47.102-90 105 40.374 105 90 105zm60-105c0 37.457-22.081 68.587-50.826 74.123-6.503-15.55-16.952-47.812.546-62.698 25.469-21.667 22.099-55.543 15.036-79.716 20.764 11.808 35.244 37.967 35.244 68.291zm-69.174-74.123c6.503 15.55 16.952 47.813-.546 62.698-25.469 21.667-22.099 55.543-15.036 79.716-20.764-11.808-35.244-37.967-35.244-68.291 0-37.457 22.081-68.587 50.826-74.123z"/><path d="m495 60h-50.729l-30-60h-318.542l-30 60h-50.729v90h46.198l30 360h327.604l30-360h46.198zm-380.729-30h281.459l15 30h-311.459zm4.531 450-2.5-30h277.396l-2.5 30zm277.396-60h-282.396l-22.5-270h327.396zm68.802-300h-13.698-392.604-13.698v-30h5.729 408.541 5.73z"/></g></svg>