<svg id="Capa_1" enable-background="new 0 0 512 512" height="512" viewBox="0 0 512 512" width="512" xmlns="http://www.w3.org/2000/svg"><g><path d="m305.261 308.172c27.387-18.179 45.064-42.032 51.679-69.517 19.545-4.898 34.06-22.613 34.06-43.655 0-5.258-.915-10.305-2.58-15h17.58c8.284 0 15-6.716 15-15s-6.716-15-15-15c-8.271 0-15-6.729-15-15 0-29.057-10.521-57.094-29.625-78.948-16.01-18.313-37.103-31.259-60.375-37.261v-3.791c0-8.284-6.716-15-15-15h-60c-8.284 0-15 6.716-15 15v3.791c-23.272 6.003-44.365 18.949-60.375 37.262-19.104 21.853-29.625 49.89-29.625 78.947 0 8.271-6.729 15-15 15-8.284 0-15 6.716-15 15s6.716 15 15 14.8h17.58c-1.665 4.895-2.58 9.942-2.58 15.2 0 21.042 14.515 38.757 34.06 43.655 6.615 27.485 24.293 51.338 51.68 69.517 22.775 15.118 44.443 21.065 45.354 21.311 1.279.345 2.593.518 3.906.518s2.627-.172 3.906-.518c.911-.246 22.579-6.193 45.355-21.311zm-154.261-173.172c0-38.502 24.83-72.345 60-84.846v54.846c0 8.284 6.716 15 15 15s15-6.716 15-15v-75h30v75c0 8.284 6.716 15 15 15s15-6.716 15-15v-54.846c35.17 12.5 60 46.344 60 84.846 0 5.257.906 10.307 2.57 15h-215.14c1.664-4.693 2.57-9.743 2.57-15zm31.704 88.186c-.917-7.527-7.307-13.186-14.89-13.186h-1.814c-8.271 0-15-6.729-15-15s6.729-15 15-15h180c8.271 0 15 6.729 15 15s-6.729 15-15 15h-1.814c-7.583 0-13.973 5.659-14.89 13.186-6.021 49.432-58.433 70.94-73.293 76.076-14.907-5.154-67.279-26.665-73.299-76.076z"/><path d="m334.071 331.562c-.123-.026-.249-.04-.373-.062-5.756-.981-11.667-1.5-17.699-1.5h-119.999c-6.031 0-11.943.518-17.699 1.5-.124.022-.25.036-.373.062-49.315 8.59-86.928 51.702-86.928 103.438v62c0 8.284 6.716 15 15 15h300c8.284 0 15-6.716 15-15v-62c0-51.736-37.613-94.848-86.929-103.438zm-168.071 150.438h-45v-47c0-30.691 18.539-57.122 45-68.719zm150 0h-120v-122h120zm75 0h-45v-115.719c26.461 11.597 45 38.027 45 68.719z"/><path d="m241 435h5.729l-4.146 8.292c-3.705 7.41-.701 16.419 6.708 20.125 7.419 3.71 16.425.691 20.125-6.708l15-30c2.325-4.649 2.076-10.172-.657-14.594-2.732-4.423-7.56-7.115-12.759-7.115h-5.729l4.146-8.292c3.705-7.41.701-16.419-6.708-20.125-7.409-3.705-16.42-.702-20.125 6.708l-15 30c-2.325 4.649-2.076 10.172.657 14.594 2.732 4.423 7.56 7.115 12.759 7.115z"/></g></svg>