<svg width="20" height="16" viewBox="0 0 20 16" xmlns="http://www.w3.org/2000/svg">
<path d="M18.8193 4.97852C18.9589 4.85742 19.1666 4.9707 19.1666 5.16211V13.1504C19.1666 14.1855 18.3967 15.0254 17.4478 15.0254H2.552C1.60311 15.0254 0.833252 14.1855 0.833252 13.1504V5.16602C0.833252 4.9707 1.03735 4.86133 1.18058 4.98242C1.98267 5.66211 3.04614 6.52539 6.69849 9.41992C7.45402 10.0215 8.72876 11.2871 9.99992 11.2793C11.2782 11.291 12.578 9.99805 13.3049 9.41992C16.9573 6.52539 18.0172 5.6582 18.8193 4.97852ZM9.99992 10.0254C10.8306 10.041 12.0266 8.88477 12.6282 8.4082C17.3798 4.64648 17.7415 4.31836 18.8372 3.38086C19.0448 3.20508 19.1666 2.93164 19.1666 2.64258V1.90039C19.1666 0.865234 18.3967 0.0253906 17.4478 0.0253906H2.552C1.60311 0.0253906 0.833252 0.865234 0.833252 1.90039V2.64258C0.833252 2.93164 0.954997 3.20117 1.16268 3.38086C2.25838 4.31445 2.62004 4.64648 7.37166 8.4082C7.97323 8.88477 9.16919 10.041 9.99992 10.0254Z" />
</svg>
