<svg width="734" height="755" viewBox="0 0 734 755" fill="none" xmlns="http://www.w3.org/2000/svg">
<path opacity="0.03" fill-rule="evenodd" clip-rule="evenodd" d="M717.368 13.6722C688.496 43.7037 658.649 86.3081 638.304 127.082C615.645 172.128 600.417 221.569 593.108 272.841C590.55 291.642 589.453 343.523 591.28 365.254C599.321 460.473 640.254 559.477 709.693 651.889C728.454 676.793 730.89 679.845 731.744 679.845C733.327 680.089 756.595 649.937 768.047 632.967C819.7 556.182 856.247 469.262 869.649 390.645C875.131 358.783 875.862 349.14 875.74 310.075C875.74 278.456 875.253 270.155 873.06 255.507C861.609 179.453 833.71 116.706 783.274 53.713C770.239 37.4771 734.546 0 732.109 0C731.257 0 724.678 6.22538 717.368 13.6722ZM757.204 72.3918C806.178 132.086 833.345 193.614 843.822 268.569C846.259 286.636 845.892 340.838 843.212 361.347C831.761 446.191 798.259 530.911 744.535 610.75L732.474 628.818L726.384 620.515C683.501 561.919 649.268 491.725 633.675 430.321C623.807 391.622 620.396 364.398 620.396 325.945C620.274 295.303 622.224 276.26 627.949 247.816C642.202 177.256 677.167 106.939 725.895 50.9054L732.109 43.7037L739.175 51.5167C743.195 55.7886 751.235 65.189 757.204 72.3918ZM1224.28 219.25C1145.34 229.992 1076.02 268.08 1030.09 325.823C991.716 374.287 968.935 433.006 958.702 510.524L957.97 516.262L854.177 616.731C797.042 671.91 746.484 720.863 741.734 725.502L732.961 733.803L627.219 634.555L521.353 535.307L520.501 526.76C515.262 476.343 506.125 443.138 487.364 405.905C445.335 322.648 369.195 268.569 262.599 246.106C248.223 243.055 215.088 238.049 209.361 238.049H206.194L207.047 249.28C209.117 277.114 217.524 315.691 228.61 347.918C246.518 399.923 271.978 443.261 304.384 476.953C352.261 526.76 409.762 552.153 486.999 557.28L498.815 558.134L615.888 667.881C680.212 728.31 733.327 777.628 733.815 777.384C734.302 777.14 790.097 723.427 857.831 657.872L980.874 538.846L989.889 537.259C1052.51 526.028 1121.58 495.51 1167.02 458.641C1218.43 417.136 1251.57 360.004 1262.04 295.426C1264.85 277.236 1266.55 248.548 1265.7 232.19L1264.85 217.296L1250.59 217.418C1242.8 217.54 1230.98 218.272 1224.28 219.25ZM1234.02 259.657C1229.15 326.555 1208.2 374.775 1165.92 416.891C1133.28 449.364 1089.3 475.245 1037.89 492.213C1026.07 495.998 996.224 504.177 993.787 504.177C991.472 504.177 991.838 500.026 995.98 479.639C1015.59 381.612 1066.64 311.173 1144.48 274.306C1167.27 263.564 1196.38 254.895 1223.67 250.868C1229.4 250.013 1234.27 249.28 1234.39 249.158C1234.63 249.036 1234.51 253.797 1234.02 259.657ZM261.502 278.456C323.876 292.13 375.651 318.62 413.661 356.463C456.421 399.069 481.152 452.66 488.46 519.07L489.192 525.906L484.562 525.418C443.507 521.267 419.995 515.408 392.342 502.467C322.658 469.751 269.908 396.016 247.127 299.331C243.473 283.583 242.01 274.672 243.228 274.672C243.838 274.672 252.122 276.382 261.502 278.456ZM287.45 613.558C209.361 618.563 132.369 649.081 59.8829 703.65C35.762 721.839 0.554199 752.359 0.554199 755.044C0.554199 757.364 28.6958 786.296 42.5834 798.259C110.806 857.101 191.454 893.601 273.441 902.757C292.445 904.832 333.135 905.198 351.53 903.368C430.228 895.555 509.658 863.57 585.798 809.125C593.23 803.752 599.564 799.236 599.686 798.992C600.416 798.381 581.656 773.966 580.682 773.966C580.073 773.966 576.296 776.53 572.031 779.581C567.768 782.633 556.561 790.324 547.058 796.551C486.39 836.591 426.209 860.884 364.2 870.651C340.932 874.313 286.476 874.68 264.914 871.261C242.376 867.721 224.224 863.326 203.392 856.368C150.155 838.667 103.253 810.711 58.1769 770.06L44.2893 757.486L48.3101 754.067C145.769 670.322 249.076 633.944 349.581 647.739C425.112 658.116 501.495 694.739 574.956 755.532C618.325 791.423 672.05 847.822 716.028 903.49C724.799 914.721 732.474 923.998 732.961 923.998C733.327 924.121 737.104 919.36 741.245 913.377C777.793 862.228 835.05 801.312 886.582 758.95C964.428 694.861 1039.23 658.97 1118.29 647.495C1138.15 644.565 1178.35 644.565 1199.3 647.495C1273.25 657.628 1348.54 694.005 1416.15 752.359L1421.51 756.876L1413.72 764.933C1396.54 782.389 1368.15 803.997 1341.23 820.233C1293.11 849.165 1244.38 866.134 1191.26 872.36C1168.24 875.046 1123.9 874.19 1101.24 870.529C1082.11 867.355 1055.8 861.128 1038.5 855.391C993.056 840.375 942.133 813.885 899.739 783.244C893.404 778.727 887.556 774.698 886.704 774.332C884.876 773.6 866.115 798.259 867.456 799.48C871.11 802.532 887.923 814.251 901.445 823.163C971.129 868.941 1038.25 894.456 1110.37 902.757C1132.42 905.32 1184.44 904.71 1203.57 901.658C1281.05 889.206 1347.56 859.664 1410.79 809.247C1426.14 797.039 1459.89 764.444 1464.27 757.73L1466.46 754.312L1457.57 746.132C1379.12 674.352 1300.42 632.235 1218.67 618.318C1166.66 609.529 1116.34 612.092 1063.47 626.254C971.006 650.913 875.618 714.514 791.438 807.537C774.138 826.825 751.357 854.537 739.419 870.773L733.327 879.196L730.89 875.778C706.769 842.573 668.883 798.87 639.889 770.914C544.622 678.869 445.822 626.498 345.927 615.266C333.5 613.924 298.537 612.824 287.45 613.558Z" fill="#BB582A"/>
</svg>
