<svg width="18" height="19" viewBox="0 0 18 19" fill="none" xmlns="http://www.w3.org/2000/svg">
<path d="M9.25 0.78125C4.43511 0.78125 0.53125 4.68651 0.53125 9.5C0.53125 14.3163 4.43511 18.2188 9.25 18.2188C14.0649 18.2188 17.9688 14.3163 17.9688 9.5C17.9688 4.68651 14.0649 0.78125 9.25 0.78125ZM9.25 4.64844C10.0655 4.64844 10.7266 5.30952 10.7266 6.125C10.7266 6.94048 10.0655 7.60156 9.25 7.60156C8.43452 7.60156 7.77344 6.94048 7.77344 6.125C7.77344 5.30952 8.43452 4.64844 9.25 4.64844ZM11.2188 13.5781C11.2188 13.8111 11.0299 14 10.7969 14H7.70312C7.47014 14 7.28125 13.8111 7.28125 13.5781V12.7344C7.28125 12.5014 7.47014 12.3125 7.70312 12.3125H8.125V10.0625H7.70312C7.47014 10.0625 7.28125 9.87361 7.28125 9.64062V8.79688C7.28125 8.56389 7.47014 8.375 7.70312 8.375H9.95312C10.1861 8.375 10.375 8.56389 10.375 8.79688V12.3125H10.7969C11.0299 12.3125 11.2188 12.5014 11.2188 12.7344V13.5781Z" fill="#327A8F"/>
</svg>
