<svg width="21" height="21" viewBox="0 0 21 21" fill="none" xmlns="http://www.w3.org/2000/svg">
<path d="M10.3352 5.11005C7.49754 5.11005 5.20863 7.39946 5.20863 10.2378C5.20863 13.0761 7.49754 15.3655 10.3352 15.3655C13.1729 15.3655 15.4618 13.0761 15.4618 10.2378C15.4618 7.39946 13.1729 5.11005 10.3352 5.11005ZM10.3352 13.5715C8.50144 13.5715 7.00228 12.0765 7.00228 10.2378C7.00228 8.39912 8.49698 6.90409 10.3352 6.90409C12.1735 6.90409 13.6682 8.39912 13.6682 10.2378C13.6682 12.0765 12.169 13.5715 10.3352 13.5715ZM16.8673 4.90029C16.8673 5.56525 16.3319 6.09632 15.6715 6.09632C15.0067 6.09632 14.4758 5.56079 14.4758 4.90029C14.4758 4.2398 15.0112 3.70427 15.6715 3.70427C16.3319 3.70427 16.8673 4.2398 16.8673 4.90029ZM20.2627 6.11417C20.1869 4.51203 19.821 3.09286 18.6476 1.92361C17.4786 0.754361 16.0597 0.388412 14.4579 0.308082C12.8071 0.214363 7.85894 0.214363 6.20808 0.308082C4.61075 0.383949 3.1919 0.749898 2.01845 1.91915C0.844999 3.0884 0.483593 4.50757 0.403281 6.10971C0.309583 7.76094 0.309583 12.7102 0.403281 14.3614C0.479132 15.9636 0.844999 17.3827 2.01845 18.552C3.1919 19.7212 4.60629 20.0872 6.20808 20.1675C7.85894 20.2612 12.8071 20.2612 14.4579 20.1675C16.0597 20.0916 17.4786 19.7257 18.6476 18.552C19.8166 17.3827 20.1824 15.9636 20.2627 14.3614C20.3564 12.7102 20.3564 7.76541 20.2627 6.11417ZM18.13 16.1331C17.782 17.0078 17.1082 17.6817 16.2293 18.0343C14.913 18.5564 11.7898 18.4359 10.3352 18.4359C8.88069 18.4359 5.75297 18.552 4.44121 18.0343C3.56669 17.6862 2.89296 17.0123 2.54048 16.1331C2.01845 14.8166 2.13892 11.6927 2.13892 10.2378C2.13892 8.78292 2.02291 5.65451 2.54048 4.34245C2.8885 3.46774 3.56223 2.79386 4.44121 2.4413C5.75744 1.91915 8.88069 2.03964 10.3352 2.03964C11.7898 2.03964 14.9175 1.92361 16.2293 2.4413C17.1038 2.78939 17.7775 3.46328 18.13 4.34245C18.652 5.65897 18.5316 8.78292 18.5316 10.2378C18.5316 11.6927 18.652 14.8211 18.13 16.1331Z" fill="#BB582A"/>
</svg>
