<?xml version="1.0"?>
<svg xmlns="http://www.w3.org/2000/svg" id="Layer_1" data-name="Layer 1" viewBox="0 0 64 64" width="512" height="512"><path d="M6,31H35a12,12,0,0,1-23.22,5.27A2,2,0,0,0,8,37.7,16,16,0,0,0,39,31a6.16,6.16,0,0,0,7-6,6,6,0,0,0-5-5.92,18,18,0,0,0-16-17,2,2,0,1,0-4,0,18,18,0,0,0-15.95,17A6,6,0,0,0,6,31ZM23,12a2,2,0,0,0,2-2V6.16A14,14,0,0,1,32.47,9.7l-1.88,1.89a2,2,0,0,0,2.82,2.82L35,12.82A13.75,13.75,0,0,1,37,19H9a13.75,13.75,0,0,1,2-6.18l1.59,1.59a2,2,0,0,0,2.82-2.82L13.53,9.71A13.93,13.93,0,0,1,21,6.16V10A2,2,0,0,0,23,12ZM6,23H40a2,2,0,0,1,0,4H6a2,2,0,0,1,0-4Z"/><path d="M35,52a2,2,0,0,0,0,4,6,6,0,0,1,5.66,4H5.34A6,6,0,0,1,11,56h8a2,2,0,0,0,0-4H11A10,10,0,0,0,1,62a2,2,0,0,0,2,2H43a2,2,0,0,0,2-2A10,10,0,0,0,35,52Z"/><circle cx="27" cy="54" r="2"/><path d="M62.89,34.21l-8-4a2,2,0,0,0-1.78,0l-8,4A2,2,0,0,0,44,36V48a2,2,0,0,0,.8,1.6L48,52v7a5,5,0,0,0,5,5h2a5,5,0,0,0,5-5V52l3.2-2.4A2,2,0,0,0,64,48V36A2,2,0,0,0,62.89,34.21ZM60,47l-3.2,2.4A2,2,0,0,0,56,51v8a1,1,0,0,1-1,1H53a1,1,0,0,1-1-1V51a2,2,0,0,0-.8-1.6L48,47V37.24l4-2V41a2,2,0,0,0,4,0V35.24l4,2Z"/></svg>
