<svg width="21" height="21" viewBox="0 0 21 21" fill="none" xmlns="http://www.w3.org/2000/svg">
<path d="M4.80979 20.2378H0.663365V6.88482H4.80979V20.2378ZM2.73435 5.06335C1.40845 5.06335 0.333008 3.96511 0.333008 2.63919C0.333008 2.0023 0.586005 1.39149 1.03634 0.941145C1.48668 0.490796 2.09747 0.237793 2.73435 0.237793C3.37122 0.237793 3.98201 0.490796 4.43235 0.941145C4.88269 1.39149 5.13569 2.0023 5.13569 2.63919C5.13569 3.96511 4.05979 5.06335 2.73435 5.06335ZM20.3285 20.2378H16.191V13.7376C16.191 12.1885 16.1598 10.2019 14.0352 10.2019C11.8794 10.2019 11.5491 11.8849 11.5491 13.626V20.2378H7.40712V6.88482H11.3839V8.70629H11.4419C11.9955 7.65716 13.3477 6.54999 15.3652 6.54999C19.5616 6.54999 20.333 9.31344 20.333 12.9028V20.2378H20.3285Z" fill="#BB582A"/>
</svg>
