<svg width="15" height="17" viewBox="0 0 15 17" fill="none" xmlns="http://www.w3.org/2000/svg">
<path d="M12.6523 7.5H11.9023V5.25C11.9023 2.63125 9.77109 0.5 7.15234 0.5C4.53359 0.5 2.40234 2.63125 2.40234 5.25V7.5H1.65234C0.824219 7.5 0.152344 8.17188 0.152344 9V15C0.152344 15.8281 0.824219 16.5 1.65234 16.5H12.6523C13.4805 16.5 14.1523 15.8281 14.1523 15V9C14.1523 8.17188 13.4805 7.5 12.6523 7.5ZM9.40234 7.5H4.90234V5.25C4.90234 4.00938 5.91172 3 7.15234 3C8.39297 3 9.40234 4.00938 9.40234 5.25V7.5Z" fill="white"/>
</svg>
