<svg width="17" height="14" viewBox="0 0 17 14" fill="none" xmlns="http://www.w3.org/2000/svg">
<path d="M6.13906 7.04301C6.77196 7.04301 7.39065 6.85107 7.91689 6.49146C8.44312 6.13185 8.85328 5.62072 9.09548 5.02271C9.33768 4.42469 9.40105 3.76666 9.27758 3.13181C9.1541 2.49696 8.84933 1.91382 8.4018 1.45612C7.95428 0.998421 7.38409 0.686723 6.76335 0.560445C6.14261 0.434166 5.4992 0.498977 4.91448 0.746682C4.32975 0.994387 3.82998 1.41386 3.47836 1.95206C3.12674 2.49025 2.93906 3.123 2.93906 3.77029C2.93906 4.63827 3.2762 5.4707 3.87632 6.08446C4.47644 6.69821 5.29037 7.04301 6.13906 7.04301ZM8.53906 8.67938C8.54087 8.40609 8.61055 8.13775 8.74156 7.89955C8.62156 7.88676 8.50406 7.8612 8.37906 7.8612H7.96156C7.39012 8.13071 6.76834 8.27027 6.13906 8.27027C5.50979 8.27027 4.888 8.13071 4.31656 7.8612H3.89906C3.008 7.8614 2.15348 8.22351 1.5234 8.86791C0.893324 9.51231 0.539261 10.3862 0.539063 11.2976L0.539062 12.3612C0.539063 12.6867 0.665491 12.9988 0.890534 13.229C1.11558 13.4592 1.4208 13.5885 1.73906 13.5885H8.76156C8.61778 13.3407 8.54099 13.0584 8.53906 12.7703V8.67938ZM15.7391 7.8612H14.9391V5.81574C14.9391 5.27325 14.7283 4.75298 14.3533 4.36939C13.9782 3.98579 13.4695 3.77029 12.9391 3.77029C12.4086 3.77029 11.8999 3.98579 11.5248 4.36939C11.1498 4.75298 10.9391 5.27325 10.9391 5.81574V7.8612H10.1391C9.92689 7.8612 9.72341 7.9474 9.57338 8.10084C9.42335 8.25427 9.33906 8.46238 9.33906 8.67938V12.7703C9.33906 12.9873 9.42335 13.1954 9.57338 13.3488C9.72341 13.5023 9.92689 13.5885 10.1391 13.5885H15.7391C15.9512 13.5885 16.1547 13.5023 16.3047 13.3488C16.4548 13.1954 16.5391 12.9873 16.5391 12.7703V8.67938C16.5391 8.46238 16.4548 8.25427 16.3047 8.10084C16.1547 7.9474 15.9512 7.8612 15.7391 7.8612ZM12.9391 11.543C12.7808 11.543 12.6262 11.495 12.4946 11.4051C12.363 11.3152 12.2605 11.1874 12.2 11.0379C12.1394 10.8884 12.1236 10.7239 12.1544 10.5652C12.1853 10.4065 12.2615 10.2607 12.3734 10.1463C12.4853 10.0319 12.6278 9.95394 12.783 9.92237C12.9382 9.8908 13.099 9.907 13.2452 9.96893C13.3914 10.0309 13.5163 10.1357 13.6042 10.2703C13.6921 10.4048 13.7391 10.563 13.7391 10.7248C13.7391 10.9418 13.6548 11.1499 13.5047 11.3034C13.3547 11.4568 13.1512 11.543 12.9391 11.543ZM13.7391 7.8612H12.1391V5.81574C12.1391 5.59875 12.2233 5.39064 12.3734 5.2372C12.5234 5.08376 12.7269 4.99756 12.9391 4.99756C13.1512 4.99756 13.3547 5.08376 13.5047 5.2372C13.6548 5.39064 13.7391 5.59875 13.7391 5.81574V7.8612Z" fill="#BB582A"/>
</svg>
