<svg enable-background="new 0 0 32 32" height="512" viewBox="0 0 32 32" width="512" xmlns="http://www.w3.org/2000/svg"><g id="_x31_0_math"><g><path d="m26 1h-20c-2.757 0-5 2.243-5 5v20c0 2.757 2.243 5 5 5h20c2.757 0 5-2.243 5-5v-20c0-2.757-2.243-5-5-5zm3 5v9h-12v-12h9c1.654 0 3 1.346 3 3zm-23-3h9v12h-12v-9c0-1.654 1.346-3 3-3zm-3 23v-9h12v12h-9c-1.654 0-3-1.346-3-3zm23 3h-9v-12h12v9c0 1.654-1.346 3-3 3z"/><path d="m6 10h2v2c0 .552.447 1 1 1s1-.448 1-1v-2h2c.553 0 1-.448 1-1s-.447-1-1-1h-2v-2c0-.552-.447-1-1-1s-1 .448-1 1v2h-2c-.553 0-1 .448-1 1s.447 1 1 1z"/><path d="m20 10h6c.553 0 1-.448 1-1s-.447-1-1-1h-6c-.553 0-1 .448-1 1s.447 1 1 1z"/><path d="m26 24h-6c-.553 0-1 .448-1 1s.447 1 1 1h6c.553 0 1-.448 1-1s-.447-1-1-1z"/><path d="m26 20h-6c-.553 0-1 .448-1 1s.447 1 1 1h6c.553 0 1-.448 1-1s-.447-1-1-1z"/><path d="m10.414 23 1.414-1.414c.391-.391.391-1.023 0-1.414s-1.023-.391-1.414 0l-1.414 1.414-1.414-1.414c-.391-.391-1.023-.391-1.414 0s-.391 1.023 0 1.414l1.414 1.414-1.414 1.415c-.391.391-.391 1.023 0 1.414.195.195.451.293.707.293s.512-.098.707-.293l1.414-1.414 1.414 1.414c.195.195.451.293.707.293s.512-.098.707-.293c.391-.391.391-1.023 0-1.414z"/></g></g></svg>