<svg width="28" height="15" viewBox="0 0 28 15" fill="none" xmlns="http://www.w3.org/2000/svg">
<path d="M27.125 2.46743H0.87505C0.392031 2.46743 7.24792e-05 2.08805 7.24792e-05 1.62068C7.24792e-05 1.15324 0.392103 0.773926 0.87505 0.773926H27.125C27.608 0.773926 28 1.15331 28 1.62068C28 2.08805 27.608 2.46743 27.125 2.46743Z" fill="#BB582A"/>
<path d="M0.87505 6.70117H27.125C27.608 6.70117 28 7.08056 28 7.54792C28 8.01529 27.608 8.39467 27.125 8.39467H0.87505C0.392031 8.39467 7.24792e-05 8.01529 7.24792e-05 7.54792C7.24792e-05 7.08056 0.392031 6.70117 0.87505 6.70117Z" fill="#BB582A"/>
<path d="M0.875044 12.6289H18.375C18.858 12.6289 19.25 13.0083 19.25 13.4757C19.25 13.9431 18.858 14.3224 18.375 14.3224H0.875044C0.392025 14.3224 6.67572e-05 13.943 6.67572e-05 13.4757C-5.72205e-06 13.0082 0.392025 12.6289 0.875044 12.6289Z" fill="#BB582A"/>
</svg>
