<svg id="Capa_1" enable-background="new 0 0 512 512" height="512" viewBox="0 0 512 512" width="512" xmlns="http://www.w3.org/2000/svg"><g><path d="m46 272h420c8.284 0 15-6.716 15-15v-242c0-8.284-6.716-15-15-15h-420c-8.284 0-15 6.716-15 15v242c0 8.284 6.716 15 15 15zm15-242h390v212h-390z"/><path d="m508.712 368.104c-25.836-32.289-73.127-37.54-105.418-11.709-14.354 11.482-24.486 19.219-32.178 24.451-10.686-28.405-38.284-48.511-70.116-48.511-25.65 0-60.212-1.184-100.145-10.42-38.961-8.941-60.606-6.829-98.11 10.084h-87.745c-8.284 0-15 6.716-15 15v150c0 8.284 6.716 15 15 15h91c8.284 0 15-6.716 15-15v-14.61c23.769-6.602 44.205-7.278 65.103-2.297 32.65 7.781 63.235 11.659 92.358 11.659 91.294 0 167.289-38.703 229.402-103.932 5.174-5.433 5.537-13.856.849-19.715zm-478.712 113.896v-120h61v120zm163.058-31.09c-23.67-5.641-46.525-5.538-72.058.509v-94.685c27.706-11.856 42.505-12.61 73.12-5.584 42.865 9.914 79.635 11.186 106.88 11.186 19.3 0 35.993 12.302 42.225 29.592-.56.027-117.225.072-117.225.072-8.284 0-15 6.716-15 15s6.716 15 15 15c0 0 116.106-.003 116.275-.008 25.461-.859 38.663-9.295 79.759-42.169 15.814-12.65 37.623-12.877 53.533-2-103.609 100.839-210.336 90.287-282.509 73.087z"/><path d="m136 90c8.284 0 15-6.716 15-15s-6.716-15-15-15h-30c-8.284 0-15 6.716-15 15v122c0 8.284 6.716 15 15 15h30c8.284 0 15-6.716 15-15s-6.716-15-15-15h-15v-92z"/><path d="m406 60h-30c-8.284 0-15 6.716-15 15s6.716 15 15 15h15v92h-15c-8.284 0-15 6.716-15 15s6.716 15 15 15h30c8.284 0 15-6.716 15-15v-122c0-8.284-6.716-15-15-15z"/><path d="m256 60c-41.456 0-75 34.533-75 76 0 41.458 33.534 76 75 76 41.456 0 75-34.533 75-76 0-41.458-33.534-76-75-76zm0 122c-24.393 0-45-21.065-45-46s20.607-46 45-46 45 21.065 45 46-20.607 46-45 46z"/></g></svg>