<svg id="Capa_1" enable-background="new 0 0 512 512" height="512" viewBox="0 0 512 512" width="512" xmlns="http://www.w3.org/2000/svg"><g><path d="m497 211h-45v-45c0-8.284-6.716-15-15-15h-45v-45c0-8.284-6.716-15-15-15h-362c-8.284 0-15 6.716-15 15v180c0 8.284 6.716 15 15 15h45v45c0 8.284 6.716 15 15 15h46v45c0 8.284 6.716 15 15 15h361c8.284 0 15-6.716 15-15v-180c0-8.284-6.716-15-15-15zm-467-90h332v150h-332zm60 180h287c8.284 0 15-6.716 15-15v-105h30v150h-332zm392 90h-331v-30h286c8.284 0 15-6.716 15-15v-105h30z"/><path d="m196 241c24.813 0 45-20.187 45-45s-20.187-45-45-45-45 20.187-45 45 20.187 45 45 45zm0-60c8.271 0 15 6.729 15 15s-6.729 15-15 15-15-6.729-15-15 6.729-15 15-15z"/><path d="m106 241c8.284 0 15-6.716 15-15s-6.716-15-15-15h-31c-8.284 0-15 6.716-15 15s6.716 15 15 15z"/><path d="m286 181h31c8.284 0 15-6.716 15-15s-6.716-15-15-15h-31c-8.284 0-15 6.716-15 15s6.716 15 15 15z"/></g></svg>