<svg width="21" height="18" viewBox="0 0 21 18" xmlns="http://www.w3.org/2000/svg">
<path d="M19.4245 0.817871H3.31337C2.85313 0.817871 2.48003 1.27575 2.48003 1.8406V2.18151H1.09115C0.630903 2.18151 0.257812 2.63939 0.257812 3.20424V14.7951C0.257812 16.1131 1.12837 17.1815 2.20226 17.1815H18.5911C19.5116 17.1815 20.2578 16.2657 20.2578 15.1361V1.8406C20.2578 1.27575 19.8847 0.817871 19.4245 0.817871ZM2.20226 15.1361C2.12859 15.1361 2.05793 15.1001 2.00584 15.0362C1.95375 14.9723 1.92448 14.8856 1.92448 14.7951V4.22696H2.48003V14.7951C2.48003 14.8856 2.45077 14.9723 2.39868 15.0362C2.34658 15.1001 2.27593 15.1361 2.20226 15.1361ZM10.3967 14.4542H5.11892C4.88882 14.4542 4.70226 14.2253 4.70226 13.9429V13.602C4.70226 13.3196 4.88882 13.0906 5.11892 13.0906H10.3967C10.6268 13.0906 10.8134 13.3196 10.8134 13.602V13.9429C10.8134 14.2253 10.6268 14.4542 10.3967 14.4542ZM17.6189 14.4542H12.3411C12.111 14.4542 11.9245 14.2253 11.9245 13.9429V13.602C11.9245 13.3196 12.111 13.0906 12.3411 13.0906H17.6189C17.849 13.0906 18.0356 13.3196 18.0356 13.602V13.9429C18.0356 14.2253 17.849 14.4542 17.6189 14.4542ZM10.3967 10.3633H5.11892C4.88882 10.3633 4.70226 10.1344 4.70226 9.85196V9.51105C4.70226 9.22865 4.88882 8.99969 5.11892 8.99969H10.3967C10.6268 8.99969 10.8134 9.22865 10.8134 9.51105V9.85196C10.8134 10.1344 10.6268 10.3633 10.3967 10.3633ZM17.6189 10.3633H12.3411C12.111 10.3633 11.9245 10.1344 11.9245 9.85196V9.51105C11.9245 9.22865 12.111 8.99969 12.3411 8.99969H17.6189C17.849 8.99969 18.0356 9.22865 18.0356 9.51105V9.85196C18.0356 10.1344 17.849 10.3633 17.6189 10.3633ZM17.6189 6.27242H5.11892C4.88882 6.27242 4.70226 6.04345 4.70226 5.76105V4.05651C4.70226 3.77411 4.88882 3.54514 5.11892 3.54514H17.6189C17.849 3.54514 18.0356 3.77411 18.0356 4.05651V5.76105C18.0356 6.04345 17.849 6.27242 17.6189 6.27242Z" />
</svg>
