<svg width="18" height="21" viewBox="0 0 18 21" fill="none" xmlns="http://www.w3.org/2000/svg">
<path d="M9.5217 0.779297C5.06143 0.779297 0.65332 3.45117 0.65332 7.77539C0.65332 10.5254 2.37483 12.0879 3.41817 12.0879C3.84855 12.0879 4.09634 11.0098 4.09634 10.7051C4.09634 10.3418 3.06604 9.56836 3.06604 8.05664C3.06604 4.91602 5.72656 2.68945 9.16958 2.68945C12.1301 2.68945 14.3211 4.20117 14.3211 6.97852C14.3211 9.05274 13.3951 12.9434 10.3955 12.9434C9.31304 12.9434 8.38707 12.2402 8.38707 11.2324C8.38707 9.75586 9.53475 8.32617 9.53475 6.80273C9.53475 4.2168 5.45268 4.68555 5.45268 7.81055C5.45268 8.4668 5.54397 9.19336 5.87002 9.79102C5.2701 12.1113 4.04417 15.5684 4.04417 17.959C4.04417 18.6973 4.16155 19.4238 4.2398 20.1621C4.38761 20.3105 4.3137 20.2949 4.53976 20.2207C6.73077 17.5254 6.65252 16.998 7.64369 13.4707C8.1784 14.3848 9.56083 14.877 10.6563 14.877C15.2731 14.877 17.3467 10.834 17.3467 7.18945C17.3467 3.31055 13.6168 0.779297 9.5217 0.779297Z" fill="#A33F11"/>
</svg>
