<svg width="22" height="23" viewBox="0 0 22 23" xmlns="http://www.w3.org/2000/svg">
    <path d="M21.4986 0.5H19.4614C19.3916 0.499922 19.3225 0.514025 19.2583 0.541456C19.1941 0.568886 19.1361 0.609072 19.0879 0.659577C19.0397 0.710082 19.0022 0.769853 18.9778 0.835267C18.9534 0.90068 18.9425 0.970372 18.9458 1.04012L19.1177 4.59621C18.1184 3.41865 16.8745 2.47295 15.4726 1.82491C14.0707 1.17687 12.5444 0.84205 11 0.84375C5.12789 0.84375 0.339456 5.63605 0.343753 11.5082C0.34805 17.3897 5.11758 22.1563 11 22.1563C13.6387 22.16 16.1843 21.181 18.1405 19.4101C18.1928 19.3633 18.235 19.3064 18.2645 19.2428C18.294 19.1792 18.3102 19.1102 18.3121 19.0401C18.3141 18.97 18.3017 18.9002 18.2757 18.8351C18.2498 18.7699 18.2108 18.7107 18.1612 18.6612L16.7002 17.2002C16.6078 17.1078 16.4837 17.0539 16.353 17.0496C16.2223 17.0452 16.0949 17.0906 15.9964 17.1766C14.842 18.1922 13.4055 18.8319 11.8783 19.0102C10.3512 19.1886 8.80591 18.8972 7.44855 18.175C6.0912 17.4527 4.98625 16.3339 4.28099 14.9676C3.57574 13.6013 3.3037 12.0526 3.50113 10.5277C3.69856 9.0029 4.35608 7.57448 5.38605 6.43288C6.41601 5.29128 7.76948 4.49075 9.26603 4.13801C10.7626 3.78526 12.3311 3.89706 13.7625 4.45849C15.1939 5.01993 16.4201 6.00433 17.2777 7.28047L12.9151 7.07121C12.8454 7.06789 12.7757 7.07878 12.7103 7.1032C12.6449 7.12763 12.5851 7.16508 12.5346 7.2133C12.4841 7.26151 12.4439 7.31948 12.4165 7.38369C12.389 7.4479 12.3749 7.51701 12.375 7.58684V9.62399C12.375 9.76074 12.4293 9.89189 12.526 9.98859C12.6227 10.0853 12.7539 10.1396 12.8906 10.1396H21.4986C21.6353 10.1396 21.7665 10.0853 21.8632 9.98859C21.9599 9.89189 22.0142 9.76074 22.0142 9.62399V1.01563C22.0142 0.878873 21.9599 0.747722 21.8632 0.651023C21.7665 0.554325 21.6353 0.5 21.4986 0.5Z" />
</svg>