<svg width="23" height="22" viewBox="0 0 23 22" xmlns="http://www.w3.org/2000/svg">
<path d="M21.751 4.84478L17.6552 0.748975C17.2157 0.309435 16.6195 0.0625033 15.9979 0.0625H2.90625C1.61182 0.0625 0.5625 1.11182 0.5625 2.40625V19.5938C0.5625 20.8882 1.61182 21.9375 2.90625 21.9375H20.0938C21.3882 21.9375 22.4375 20.8882 22.4375 19.5938V6.50205C22.4375 5.88045 22.1906 5.28431 21.751 4.84478ZM11.5 18.8125C9.77412 18.8125 8.375 17.4134 8.375 15.6875C8.375 13.9616 9.77412 12.5625 11.5 12.5625C13.2259 12.5625 14.625 13.9616 14.625 15.6875C14.625 17.4134 13.2259 18.8125 11.5 18.8125ZM16.1875 3.94336V8.85156C16.1875 9.17515 15.9251 9.4375 15.6016 9.4375H4.27344C3.94985 9.4375 3.6875 9.17515 3.6875 8.85156V3.77344C3.6875 3.44985 3.94985 3.1875 4.27344 3.1875H15.4316C15.5871 3.1875 15.7361 3.24922 15.8459 3.35913L16.0159 3.52905C16.0703 3.58345 16.1135 3.64804 16.1429 3.71913C16.1724 3.79022 16.1875 3.86641 16.1875 3.94336Z"/>
</svg>
