<svg width="803" height="413" viewBox="0 0 803 413" fill="none" xmlns="http://www.w3.org/2000/svg">
<path opacity="0.15" fill-rule="evenodd" clip-rule="evenodd" d="M392.669 7.48718C376.858 23.933 360.513 47.264 349.372 69.5927C336.963 94.2607 328.624 121.336 324.622 149.413C323.221 159.709 322.62 188.12 323.621 200.02C328.024 252.164 350.44 306.38 388.466 356.987C398.74 370.625 400.074 372.296 400.541 372.296C401.408 372.43 414.15 355.918 420.422 346.625C448.708 304.576 468.722 256.977 476.061 213.924C479.063 196.476 479.463 191.196 479.396 169.803C479.396 152.488 479.129 147.942 477.929 139.92C471.658 98.2719 456.38 63.9103 428.76 29.4143C421.622 20.5232 402.076 0 400.741 0C400.275 0 396.672 3.40914 392.669 7.48718ZM414.484 39.6431C441.303 72.3329 456.18 106.026 461.918 147.074C463.252 156.968 463.051 186.649 461.583 197.88C455.313 244.342 436.966 290.737 407.546 334.458L400.941 344.352L397.606 339.806C374.122 307.718 355.376 269.278 346.837 235.652C341.433 214.46 339.565 199.551 339.565 178.494C339.498 161.714 340.566 151.285 343.701 135.709C351.507 97.0685 370.654 58.562 397.339 27.8768L400.741 23.933L404.611 28.2115C406.812 30.5509 411.215 35.6987 414.484 39.6431ZM670.263 120.065C627.032 125.948 589.073 146.805 563.922 178.427C542.907 204.967 530.432 237.123 524.828 279.573L524.427 282.715L467.588 337.734C436.3 367.951 408.613 394.758 406.012 397.299L401.208 401.845L343.301 347.494L285.327 293.144L284.86 288.464C281.992 260.854 276.988 242.671 266.714 222.281C243.698 176.688 202.003 147.073 143.628 134.773C135.756 133.101 117.61 130.36 114.474 130.36H112.74L113.207 136.511C114.341 151.753 118.945 172.878 125.016 190.527C134.822 219.006 148.765 242.738 166.511 261.189C192.729 288.464 224.218 302.369 266.514 305.177L272.985 305.645L337.097 365.744C372.321 398.836 401.408 425.844 401.676 425.71C401.942 425.577 432.497 396.162 469.589 360.263L536.97 295.082L541.907 294.213C576.197 288.063 614.023 271.351 638.908 251.161C667.06 228.432 685.206 197.145 690.944 161.781C692.478 151.82 693.412 136.11 692.945 127.152L692.478 118.996L684.673 119.062C680.403 119.129 673.932 119.53 670.263 120.065ZM675.6 142.193C672.931 178.828 661.456 205.234 638.307 228.298C620.428 246.08 596.345 260.253 568.191 269.545C561.721 271.618 545.375 276.097 544.041 276.097C542.773 276.097 542.974 273.824 545.242 262.659C555.983 208.978 583.936 170.404 626.566 150.215C639.041 144.333 654.985 139.586 669.929 137.38C673.065 136.912 675.733 136.511 675.8 136.444C675.934 136.377 675.866 138.984 675.6 142.193ZM143.028 152.488C177.185 159.976 205.538 174.482 226.353 195.206C249.769 218.538 263.312 247.885 267.314 284.253L267.715 287.996L265.18 287.729C242.697 285.456 229.822 282.247 214.678 275.161C176.518 257.245 147.631 216.866 135.156 163.92C133.155 155.296 132.354 150.416 133.021 150.416C133.355 150.416 137.891 151.352 143.028 152.488ZM157.238 335.996C114.474 338.737 72.312 355.449 32.6175 385.332C19.4084 395.293 0.12793 412.006 0.12793 413.477C0.12793 414.747 15.5388 430.591 23.1439 437.142C60.5039 469.365 104.668 489.353 149.566 494.367C159.973 495.503 182.255 495.704 192.329 494.701C235.426 490.423 278.923 472.907 320.619 443.092C324.688 440.15 328.157 437.677 328.224 437.543C328.624 437.209 318.35 423.839 317.817 423.839C317.483 423.839 315.415 425.242 313.08 426.914C310.745 428.585 304.608 432.796 299.404 436.206C266.181 458.133 233.225 471.437 199.267 476.785C186.525 478.79 156.704 478.991 144.896 477.119C132.554 475.181 122.614 472.774 111.206 468.964C82.0522 459.27 56.3676 443.961 31.6832 421.7L24.0781 414.814L26.28 412.941C79.6503 367.081 136.223 347.16 191.261 354.714C232.624 360.397 274.453 380.452 314.681 413.744C338.431 433.398 367.852 464.283 391.935 494.768C396.738 500.918 400.941 505.999 401.208 505.999C401.408 506.066 403.477 503.459 405.744 500.183C425.758 472.172 457.114 438.814 485.334 415.616C527.963 380.519 568.926 360.864 612.222 354.581C623.097 352.976 645.112 352.976 656.587 354.581C697.081 360.129 738.31 380.051 775.336 412.006L778.271 414.48L774.002 418.892C764.596 428.451 749.051 440.284 734.307 449.175C707.956 465.019 681.27 474.311 652.183 477.721C639.575 479.192 615.291 478.723 602.882 476.718C592.408 474.98 577.998 471.57 568.525 468.428C543.641 460.205 515.755 445.699 492.539 428.919C489.07 426.446 485.867 424.239 485.4 424.039C484.399 423.638 474.126 437.142 474.86 437.811C476.861 439.482 486.068 445.899 493.473 450.78C531.633 475.849 568.391 489.821 607.886 494.367C619.961 495.771 648.447 495.436 658.922 493.765C701.351 486.946 737.777 470.768 772.401 443.159C780.807 436.474 799.286 418.624 801.688 414.947L802.888 413.076L798.019 408.596C755.055 369.288 711.959 346.224 667.194 338.603C638.707 333.789 611.155 335.193 582.201 342.949C531.566 356.452 479.329 391.282 433.231 442.223C423.757 452.785 411.282 467.961 404.744 476.852L401.408 481.464L400.074 479.593C386.865 461.409 366.117 437.477 350.24 422.167C298.07 371.761 243.965 343.082 189.26 336.931C182.455 336.196 163.309 335.594 157.238 335.996Z" fill="#B7DEE6"/>
</svg>
