<svg width="65" height="65" viewBox="0 0 65 65" fill="none" xmlns="http://www.w3.org/2000/svg">
<path fill-rule="evenodd" clip-rule="evenodd" d="M33.8399 0.221436L35.5756 0.445101C41.9451 1.26592 48.7591 3.95983 54.1542 9.04829C59.5774 14.1632 63.4789 21.6177 64.0986 31.7615L64.2054 33.5083L60.7119 33.7217L60.6051 31.975C60.0374 22.6813 56.5014 16.0733 51.7527 11.5945C46.9759 7.08917 40.8837 4.65808 35.1282 3.9164L33.3926 3.69273L33.8399 0.221436Z" fill="#BB582A"/>
<path fill-rule="evenodd" clip-rule="evenodd" d="M30.5878 64.1067L28.8522 63.883C22.4826 63.0622 15.6686 60.3683 10.2736 55.2798C4.85037 50.1649 0.948816 42.7104 0.329098 32.5666L0.222383 30.8198L3.71587 30.6064L3.82259 32.3532C4.39037 41.6469 7.92632 48.2549 12.675 52.7337C17.4518 57.239 23.5441 59.67 29.2995 60.4117L31.0352 60.6354L30.5878 64.1067Z" fill="#BB582A"/>
<path d="M50.4766 19.1807C47.0103 13.8021 40.3516 10.9307 36.7891 10.2432C36.6016 10.6391 36.4766 11.6182 35.9766 13.6182C42.2891 15.3682 44.7891 17.6182 47.9766 22.0557C51.1641 26.4932 51.0391 33.1391 50.4766 36.1807C51.0182 36.3057 52.5016 36.6432 54.1016 36.9932C55.1969 29.6361 53.9428 24.5594 50.4766 19.1807Z" fill="#327A8F"/>
<path d="M13.9512 45.1474C17.4174 50.5261 24.0762 53.3974 27.6387 54.0849C27.8262 53.6891 27.9512 52.7099 28.4512 50.7099C22.1387 48.9599 19.6387 46.7099 16.4512 42.2724C13.2637 37.8349 13.3887 31.1891 13.9512 28.1474C13.4095 28.0224 11.9262 27.6849 10.3262 27.3349C9.2308 34.6921 10.4849 39.7687 13.9512 45.1474Z" fill="#327A8F"/>
<path d="M44.3059 27.8136L40.929 29.0581C40.2107 27.4006 38.9577 25.1636 36.5275 23.9715C33.1709 22.325 30.2755 22.8651 28.7495 23.2799C28.4684 22.5243 27.7856 20.6626 27.5723 19.7381C31.0875 18.7009 34.1086 18.762 37.6838 20.3909C41.6838 22.2133 43.3283 25.3246 44.3059 27.8136Z" fill="#B7DEE6"/>
<path d="M20.1218 36.5145L23.4988 35.27C24.2171 36.9275 25.47 39.1645 27.9002 40.3566C31.2568 42.0031 34.1522 41.463 35.6782 41.0482C35.9593 41.8038 36.6421 43.6655 36.8555 44.59C33.3402 45.6273 30.3191 45.5661 26.7439 43.9373C22.744 42.1148 21.0994 39.0035 20.1218 36.5145Z" fill="#B7DEE6"/>
</svg>
