<?xml version="1.0"?>
<svg xmlns="http://www.w3.org/2000/svg" id="Layer_3" data-name="Layer 3" viewBox="0 0 32 32" width="512" height="512"><path d="M13.09,8v2.66a1.07,1.07,0,0,0,2.13,0h1.07a1.07,1.07,0,0,0,2.13,0V8a2.67,2.67,0,1,0-5.34,0Zm3.2,0v.53H15.22V8a.53.53,0,1,1,1.07,0Z"/><path d="M9.89,11.74A1.07,1.07,0,0,0,11,10.67V7.47h.58a1.07,1.07,0,0,0,0-2.13H8.34a1.07,1.07,0,0,0,0,2.13h.48v3.2A1.07,1.07,0,0,0,9.89,11.74Z"/><path d="M24.46,11.52a1.07,1.07,0,0,0,.2-1.5L23.53,8.54,24.66,7A1.07,1.07,0,1,0,23,5.75l-.78,1-.78-1A1.07,1.07,0,1,0,19.7,7l1.14,1.49L19.7,10a1.07,1.07,0,0,0,1.7,1.3l.78-1,.78,1a1.07,1.07,0,0,0,1.5.2Z"/><path d="M21.33,29.86H7.47a3.2,3.2,0,0,1-3.2-3.2V5.33a3.2,3.2,0,0,1,3.2-3.2H24.53a3.2,3.2,0,0,1,3.2,3.2V23.46a1.07,1.07,0,1,0,2.13,0V5.33A5.34,5.34,0,0,0,24.53,0H7.47A5.34,5.34,0,0,0,2.14,5.33V26.66A5.34,5.34,0,0,0,7.47,32H21.33a1.07,1.07,0,1,0,0-2.13Z"/><path d="M29.57,25.92a1.07,1.07,0,0,0-1.51,0l-4.26,4.26a1.07,1.07,0,1,0,1.51,1.51l4.26-4.26A1.07,1.07,0,0,0,29.57,25.92Z"/><path d="M29.5,30.11a1.07,1.07,0,0,0-1.5.14h0A1.07,1.07,0,0,0,28.81,32a1.07,1.07,0,0,0,.69-1.89Z"/><path d="M24.55,27.73a1.07,1.07,0,1,0-.68-1.89h0a1.07,1.07,0,0,0,.69,1.88Z"/><path d="M21.35,14.94H10.72a1.07,1.07,0,0,0,0,2.13H21.35a1.07,1.07,0,0,0,0-2.13Z"/><path d="M21.35,19.21H10.72a1.07,1.07,0,1,0,0,2.13H21.35a1.07,1.07,0,0,0,0-2.13Z"/><path d="M21.35,23.47H10.72a1.07,1.07,0,1,0,0,2.13H21.35a1.07,1.07,0,0,0,0-2.13Z"/></svg>
