<svg width="21" height="21" viewBox="0 0 21 21" xmlns="http://www.w3.org/2000/svg">
<path d="M19.3305 1.3142L15.268 0.376704C14.8266 0.275142 14.3735 0.50561 14.1938 0.919673L12.3188 5.29467C12.1547 5.67749 12.2641 6.1267 12.5883 6.38842L14.9555 8.32592C13.5492 11.322 11.0922 13.8142 8.03361 15.2478L6.09611 12.8806C5.83049 12.5564 5.38517 12.447 5.00236 12.6111L0.62736 14.4861C0.209391 14.6697 -0.0210775 15.1228 0.080485 15.5642L1.01798 19.6267C1.11564 20.0486 1.49064 20.3533 1.93205 20.3533C11.936 20.3533 20.057 12.2478 20.057 2.22827C20.057 1.79077 19.7563 1.41186 19.3305 1.3142Z" />
</svg>
