<svg width="20" height="17" viewBox="0 0 20 17" fill="none" xmlns="http://www.w3.org/2000/svg">
<path d="M17.282 4.45152C17.2937 4.62918 17.2937 4.80687 17.2937 4.98453C17.2937 10.4033 13.513 16.647 6.60313 16.647C4.47432 16.647 2.49675 15.9743 0.833252 14.8069C1.13572 14.8449 1.42651 14.8576 1.74061 14.8576C3.49714 14.8576 5.11412 14.2104 6.40537 13.1064C4.75351 13.0683 3.3692 11.8881 2.89224 10.2637C3.12492 10.3018 3.35756 10.3271 3.60187 10.3271C3.93921 10.3271 4.27659 10.2764 4.59065 10.1876C2.869 9.80683 1.57772 8.15711 1.57772 6.16473V6.11398C2.07791 6.41855 2.6596 6.60891 3.2761 6.63426C2.26404 5.8982 1.601 4.64187 1.601 3.22055C1.601 2.45914 1.78709 1.76117 2.11283 1.15203C3.96245 3.63934 6.74271 5.26367 9.86027 5.44137C9.80212 5.1368 9.76721 4.81957 9.76721 4.5023C9.76721 2.2434 11.4423 0.40332 13.5246 0.40332C14.6065 0.40332 15.5836 0.898242 16.27 1.69773C17.1191 1.52008 17.9334 1.17742 18.6547 0.707891C18.3755 1.65969 17.7822 2.45918 17.0028 2.96676C17.759 2.87797 18.4918 2.64949 19.1665 2.33227C18.6548 3.14441 18.0149 3.86773 17.282 4.45152Z" fill="#A33F11"/>
</svg>
