<svg width="22" height="22" viewBox="0 0 22 22" fill="none" xmlns="http://www.w3.org/2000/svg">
<path d="M18.7049 3.25078C16.6473 1.28203 13.9071 0.199219 10.9951 0.199219C4.98437 0.199219 0.0933036 4.86797 0.0933036 10.6055C0.0933036 12.4383 0.594196 14.2289 1.54688 15.8086L0 21.1992L5.77991 19.7508C7.37098 20.5805 9.16339 21.0164 10.9902 21.0164H10.9951C17.0009 21.0164 22 16.3477 22 10.6102C22 7.83047 20.7625 5.21953 18.7049 3.25078ZM10.9951 19.2633C9.36473 19.2633 7.76875 18.8461 6.37902 18.0586L6.05 17.8711L2.62232 18.7289L3.53571 15.5367L3.31964 15.2086C2.41116 13.8305 1.93482 12.2414 1.93482 10.6055C1.93482 5.83828 6.00089 1.95703 11 1.95703C13.421 1.95703 15.6946 2.85703 17.4036 4.49297C19.1125 6.12891 20.1634 8.29922 20.1585 10.6102C20.1585 15.382 15.9893 19.2633 10.9951 19.2633ZM15.9647 12.7852C15.6946 12.6539 14.354 12.0258 14.1036 11.9414C13.8531 11.8523 13.6714 11.8102 13.4897 12.0727C13.308 12.3352 12.7875 12.9164 12.6254 13.0945C12.4683 13.268 12.3062 13.2914 12.0362 13.1602C10.4353 12.3961 9.38438 11.7961 8.32857 10.0664C8.04866 9.60703 8.60848 9.63984 9.12902 8.64609C9.21741 8.47266 9.17321 8.32266 9.10446 8.19141C9.03571 8.06016 8.49063 6.78047 8.26473 6.26016C8.04375 5.75391 7.81786 5.82422 7.65089 5.81484C7.49375 5.80547 7.31205 5.80547 7.13036 5.80547C6.94866 5.80547 6.65402 5.87109 6.40357 6.12891C6.15312 6.39141 5.45089 7.01953 5.45089 8.29922C5.45089 9.57891 6.42813 10.8164 6.56071 10.9898C6.69821 11.1633 8.4808 13.7883 11.2161 14.918C12.9446 15.6305 13.6223 15.6914 14.4866 15.5695C15.0121 15.4945 16.0973 14.9414 16.3232 14.332C16.5491 13.7227 16.5491 13.2023 16.4804 13.0945C16.4165 12.9773 16.2348 12.9117 15.9647 12.7852Z" fill="#619F56"/>
</svg>
