<svg width="19" height="18" viewBox="0 0 19 18" fill="none" xmlns="http://www.w3.org/2000/svg">
<path d="M15.5874 3.03076C13.8728 1.39014 11.5893 0.487793 9.16257 0.487793C4.15365 0.487793 0.077753 4.37842 0.077753 9.15967C0.077753 10.687 0.495164 12.1792 1.28906 13.4956L0 17.9878L4.81659 16.7808C6.14249 17.4722 7.63616 17.8354 9.15848 17.8354H9.16257C14.1674 17.8354 18.3333 13.9448 18.3333 9.16357C18.3333 6.84717 17.3021 4.67139 15.5874 3.03076ZM9.16257 16.3745C7.80394 16.3745 6.47396 16.0269 5.31585 15.3706L5.04167 15.2144L2.18527 15.9292L2.94643 13.269L2.76637 12.9956C2.0093 11.8472 1.61235 10.5229 1.61235 9.15967C1.61235 5.18701 5.00074 1.95264 9.16667 1.95264C11.1842 1.95264 13.0789 2.70264 14.503 4.06592C15.9271 5.4292 16.8028 7.23779 16.7987 9.16357C16.7987 13.1401 13.3244 16.3745 9.16257 16.3745ZM13.3039 10.9761C13.0789 10.8667 11.9617 10.3433 11.753 10.2729C11.5443 10.1987 11.3929 10.1636 11.2414 10.3823C11.09 10.6011 10.6562 11.0854 10.5212 11.2339C10.3903 11.3784 10.2552 11.3979 10.0301 11.2886C8.69606 10.6519 7.82031 10.1519 6.94048 8.71045C6.70722 8.32764 7.17374 8.35498 7.60751 7.52686C7.68118 7.38232 7.64435 7.25732 7.58705 7.14795C7.52976 7.03857 7.07552 5.97217 6.88728 5.53857C6.70312 5.1167 6.51488 5.17529 6.37574 5.16748C6.24479 5.15967 6.09338 5.15967 5.94196 5.15967C5.79055 5.15967 5.54501 5.21436 5.33631 5.4292C5.1276 5.64795 4.54241 6.17139 4.54241 7.23779C4.54241 8.3042 5.35677 9.33545 5.46726 9.47998C5.58185 9.62451 7.06734 11.812 9.34673 12.7534C10.7872 13.3472 11.3519 13.3979 12.0722 13.2964C12.51 13.2339 13.4144 12.7729 13.6027 12.2651C13.7909 11.7573 13.7909 11.3237 13.7336 11.2339C13.6804 11.1362 13.529 11.0815 13.3039 10.9761Z" fill="#BB582A"/>
</svg>
