<svg width="244" height="126" viewBox="0 0 244 126" fill="none" xmlns="http://www.w3.org/2000/svg">
<path opacity="0.05" fill-rule="evenodd" clip-rule="evenodd" d="M119.332 3.13665C114.557 8.10337 109.621 15.1494 106.257 21.8928C102.509 29.3427 99.9906 37.5194 98.7819 45.9989C98.3588 49.1082 98.1773 57.6886 98.4796 61.2825C99.8093 77.0302 106.579 93.4039 118.063 108.687C121.166 112.806 121.569 113.311 121.71 113.311C121.972 113.351 125.82 108.364 127.714 105.558C136.256 92.8588 142.301 78.4837 144.517 65.4817C145.424 60.2123 145.545 58.6175 145.525 52.1568C145.525 46.9276 145.444 45.5547 145.081 43.1321C143.188 30.5541 138.574 20.1767 130.232 9.75874C128.076 7.07358 122.173 0.875488 121.77 0.875488C121.629 0.875488 120.541 1.90506 119.332 3.13665ZM125.921 12.8479C134.02 22.7204 138.513 32.896 140.246 45.2924C140.649 48.2805 140.588 57.2444 140.145 60.6363C138.251 74.6681 132.711 88.6795 123.825 101.884L121.831 104.872L120.823 103.499C113.731 93.8077 108.07 82.1987 105.491 72.0435C103.859 65.6434 103.295 61.141 103.295 54.7815C103.275 49.7138 103.597 46.5643 104.544 41.8602C106.901 30.1906 112.684 18.5615 120.743 9.2944L121.77 8.10337L122.939 9.3955C123.604 10.102 124.934 11.6567 125.921 12.8479ZM203.167 37.1358C190.111 38.9125 178.647 45.2115 171.052 54.7613C164.705 62.7764 160.938 72.4876 159.245 85.3078L159.124 86.2567L141.958 102.873C132.509 111.998 124.148 120.094 123.362 120.862L121.911 122.234L104.423 105.82L86.9148 89.4064L86.7738 87.993C85.9075 79.6548 84.3963 74.1632 81.2936 68.0054C74.3426 54.2362 61.7503 45.2924 44.1211 41.5774C41.7435 41.0727 36.2635 40.245 35.3164 40.245H34.7926L34.9338 42.1023C35.2761 46.7056 36.6665 53.0855 38.4999 58.4155C41.4616 67.0162 45.6723 74.1836 51.0317 79.7557C58.9497 87.993 68.4594 92.1925 81.2332 93.0404L83.1874 93.1817L102.549 111.332C113.187 121.326 121.972 129.482 122.053 129.442C122.133 129.402 131.361 120.518 142.563 109.677L162.912 89.9918L164.403 89.7293C174.759 87.8719 186.183 82.8247 193.698 76.7273C202.2 69.863 207.68 60.4143 209.413 49.734C209.876 46.7258 210.158 41.9812 210.017 39.2759L209.876 36.8127L207.519 36.8329C206.23 36.8531 204.275 36.9742 203.167 37.1358ZM204.779 43.8184C203.973 54.8824 200.508 62.8571 193.516 69.8224C188.117 75.193 180.844 79.4732 172.341 82.2794C170.387 82.9054 165.451 84.2581 165.048 84.2581C164.665 84.2581 164.725 83.5715 165.41 80.1998C168.654 63.9878 177.096 52.3385 189.97 46.2413C193.738 44.4646 198.553 43.031 203.066 42.3649C204.013 42.2236 204.819 42.1023 204.839 42.0821C204.88 42.062 204.859 42.8494 204.779 43.8184ZM43.9396 46.9276C54.2553 49.189 62.8181 53.57 69.1043 59.8287C76.176 66.875 80.2661 75.738 81.4748 86.7212L81.5958 87.8517L80.8302 87.771C74.0404 87.0845 70.1518 86.1154 65.5784 83.9753C54.0539 78.5647 45.33 66.37 41.5623 50.38C40.9579 47.7755 40.7161 46.3018 40.9175 46.3018C41.0184 46.3018 42.3884 46.5845 43.9396 46.9276ZM48.2311 102.348C35.3164 103.176 22.5831 108.223 10.5952 117.248C6.606 120.256 0.783203 125.303 0.783203 125.747C0.783203 126.131 5.43737 130.916 7.73414 132.894C19.017 142.626 32.3549 148.662 45.9142 150.177C49.0572 150.52 55.7866 150.58 58.8289 150.278C71.8443 148.986 84.9807 143.696 97.573 134.691C98.802 133.803 99.8496 133.056 99.8698 133.016C99.9906 132.915 96.8879 128.877 96.7268 128.877C96.6261 128.877 96.0014 129.301 95.2962 129.805C94.5911 130.31 92.7376 131.582 91.166 132.612C81.1325 139.234 71.1795 143.252 60.9243 144.867C57.076 145.472 48.07 145.533 44.5039 144.968C40.7765 144.382 37.7745 143.655 34.3292 142.505C25.5247 139.577 17.7679 134.954 10.3131 128.231L8.01628 126.151L8.68125 125.586C24.7994 111.736 41.8847 105.719 58.5065 108.001C70.9981 109.717 83.6306 115.774 95.7799 125.828C102.952 131.764 111.838 141.091 119.111 150.298C120.561 152.155 121.831 153.69 121.911 153.69C121.972 153.71 122.596 152.923 123.281 151.933C129.326 143.474 138.795 133.399 147.318 126.393C160.192 115.794 172.563 109.858 185.639 107.961C188.923 107.476 195.571 107.476 199.037 107.961C211.266 109.636 223.718 115.653 234.9 125.303L235.786 126.05L234.497 127.383C231.656 130.27 226.962 133.843 222.509 136.529C214.551 141.314 206.491 144.12 197.707 145.15C193.899 145.594 186.565 145.452 182.818 144.847C179.655 144.322 175.303 143.292 172.442 142.343C164.927 139.86 156.505 135.479 149.494 130.411C148.446 129.664 147.479 128.998 147.338 128.937C147.036 128.816 143.933 132.894 144.155 133.096C144.759 133.601 147.539 135.539 149.776 137.013C161.3 144.584 172.402 148.804 184.329 150.177C187.976 150.601 196.579 150.5 199.742 149.995C212.556 147.936 223.557 143.05 234.013 134.712C236.552 132.693 242.133 127.302 242.858 126.192L243.221 125.626L241.75 124.273C228.775 112.402 215.76 105.437 202.24 103.135C193.637 101.682 185.316 102.106 176.572 104.448C161.28 108.526 145.504 119.044 131.582 134.429C128.721 137.619 124.954 142.202 122.979 144.887L121.972 146.28L121.569 145.715C117.58 140.223 111.314 132.996 106.519 128.372C90.763 113.149 74.4232 104.488 57.9021 102.63C55.847 102.408 50.0647 102.227 48.2311 102.348Z" fill="#BB582A"/>
</svg>
