<?xml version="1.0" standalone="no"?>
<!DOCTYPE svg PUBLIC "-//W3C//DTD SVG 20010904//EN"
 "http://www.w3.org/TR/2001/REC-SVG-20010904/DTD/svg10.dtd">
<svg version="1.0" xmlns="http://www.w3.org/2000/svg"
 width="126.000000pt" height="126.000000pt" viewBox="0 0 126.000000 126.000000"
 preserveAspectRatio="xMidYMid meet">
<metadata>
Created by potrace 1.14, written by Peter Selinger 2001-2017
</metadata>
<g transform="translate(0.000000,126.000000) scale(0.100000,-0.100000)"
fill="#000000" stroke="none">
<path d="M589 978 c-60 -83 -73 -123 -74 -233 0 -96 1 -103 38 -177 21 -42 48
-85 59 -95 19 -17 20 -17 40 7 12 14 37 59 57 100 33 70 35 81 36 175 0 87 -3
106 -24 145 -29 54 -55 89 -81 107 -18 12 -22 10 -51 -29z m84 -53 c71 -112
65 -255 -14 -380 -34 -54 -33 -55 -83 40 -43 83 -52 179 -25 265 16 50 68 130
82 124 7 -2 25 -24 40 -49z"/>
<path d="M997 826 c-88 -32 -136 -85 -166 -184 -16 -52 -29 -69 -101 -138 -45
-44 -87 -82 -94 -85 -6 -4 -49 29 -97 75 -77 72 -88 87 -99 133 -14 62 -46
108 -101 145 -40 27 -144 57 -156 45 -9 -10 34 -134 59 -167 32 -44 86 -78
143 -90 50 -11 54 -14 194 -142 l53 -49 82 80 c113 112 124 120 170 132 115
30 196 121 196 219 0 35 -3 40 -22 40 -13 -1 -40 -7 -61 -14z m52 -58 c-12
-52 -41 -93 -88 -122 -35 -22 -101 -49 -107 -43 -11 10 24 93 54 128 35 40 99
78 133 79 15 0 16 -6 8 -42z m-777 5 c79 -31 130 -87 143 -157 7 -37 7 -37
-21 -30 -79 18 -126 59 -159 137 -15 36 -20 67 -10 67 2 0 24 -8 47 -17z"/>
<path d="M194 501 c-44 -11 -114 -48 -154 -81 l-35 -28 23 -25 c50 -53 147
-93 247 -101 68 -5 235 59 235 91 0 18 -17 16 -48 -5 -61 -41 -115 -57 -192
-56 -80 0 -135 20 -195 68 -29 24 -30 25 -10 40 11 8 43 28 70 43 43 24 61 28
130 28 108 0 182 -36 283 -136 40 -40 72 -77 72 -83 0 -6 26 16 58 49 75 79
128 120 195 150 102 45 255 19 320 -53 18 -20 17 -21 -25 -49 -59 -40 -86 -50
-150 -58 -65 -8 -152 13 -210 51 -42 27 -58 30 -58 10 0 -18 114 -74 170 -84
113 -20 221 13 310 96 l25 23 -35 29 c-68 57 -137 83 -225 84 -75 1 -87 -2
-155 -36 -73 -37 -129 -81 -181 -144 l-26 -32 -59 60 c-63 65 -138 117 -194
137 -45 16 -146 22 -186 12z"/>
</g>
</svg>
